<?xml version="1.0" encoding="UTF-8"?>
<!DOCTYPE svg PUBLIC "-//W3C//DTD SVG 1.1//EN" "http://www.w3.org/Graphics/SVG/1.1/DTD/svg11.dtd">
<!-- Creator: CorelDRAW X8 -->
<svg xmlns="http://www.w3.org/2000/svg" xml:space="preserve" width="250px" height="156px" version="1.1" style="shape-rendering:geometricPrecision; text-rendering:geometricPrecision; image-rendering:optimizeQuality; fill-rule:evenodd; clip-rule:evenodd"
viewBox="0 0 250 156"
 xmlns:xlink="http://www.w3.org/1999/xlink">
 <defs>
  <style type="text/css">
   <![CDATA[
    .fil0 {fill:#FEFEFE}
    .fil1 {fill:#FEFEFE;fill-rule:nonzero}
   ]]>
  </style>
 </defs>
 <g id="Слой_x0020_1">
  <metadata id="CorelCorpID_0Corel-Layer"/>
  <rect class="fil0" x="164" y="59" width="29.3033" height="61.5376"/>
  <rect class="fil0" x="132" y="59" width="29.3033" height="29.2455"/>
  <rect class="fil0" x="132" y="91" width="29.3033" height="29.2455"/>
  <path class="fil1" d="M20 137l-4 0c-1,-1 -1,-1 -2,-2 -1,0 -2,0 -3,0 -2,0 -4,0 -5,2 -2,1 -2,2 -2,4 0,2 0,4 2,5 1,1 3,2 5,2 1,0 2,0 3,0 0,-1 1,-1 2,-2l4 0c-1,2 -2,3 -4,4 -1,1 -3,2 -5,2 -4,0 -6,-2 -8,-4 -2,-2 -3,-4 -3,-7 0,-2 1,-5 3,-6 2,-3 4,-4 8,-4 2,0 4,1 5,2 2,1 3,2 4,4z"/>
  <polygon id="1" class="fil1" points="32,140 28,140 28,151 25,151 25,140 21,140 21,136 32,136 "/>
  <path id="2" class="fil1" d="M50 144c0,2 -1,4 -2,5 -1,2 -3,3 -6,3 -1,0 -1,0 -2,-1 -1,0 -2,-1 -2,-1l0 6 -4 0 0 -20 3 0 0 2c1,-1 2,-1 3,-2 1,0 1,0 2,0 2,0 4,1 6,2 1,2 2,3 2,6zm-4 0c0,-1 0,-2 -1,-3 -1,-1 -2,-2 -3,-2 -1,0 -2,1 -3,2 -1,0 -2,1 -2,3 0,1 1,2 2,3 0,1 2,1 3,1 1,0 2,0 3,-1 1,-1 1,-2 1,-3z"/>
  <path id="3" class="fil1" d="M68 144c0,2 -1,4 -3,5 -1,2 -3,3 -5,3 -3,0 -5,-1 -6,-3 -2,-1 -3,-3 -3,-5 0,-2 1,-4 3,-6 1,-1 3,-2 6,-2 2,0 4,1 5,2 2,2 3,4 3,6zm-4 0c0,-1 0,-3 -1,-3 -1,-1 -2,-2 -3,-2 -2,0 -3,1 -4,2 0,0 -1,2 -1,3 0,1 1,2 1,3 1,1 2,1 4,1 1,0 2,0 3,-1 1,-1 1,-2 1,-3z"/>
  <path id="4" class="fil1" d="M82 131c-1,1 -1,2 -2,3 -1,0 -2,1 -3,1 -1,0 -2,-1 -3,-1 -1,-1 -1,-2 -2,-3l3 0c0,0 1,1 1,1 0,0 1,0 1,0 1,0 2,0 2,-1l3 0zm2 20l-4 0 0 -9 -6 9 -4 0 0 -15 4 0 0 10 6 -10 4 0 0 15z"/>
  <polygon id="5" class="fil1" points="101,151 96,151 91,144 91,151 87,151 87,136 91,136 91,143 96,136 101,136 95,143 "/>
  <path id="6" class="fil1" d="M119 151l-4 0 0 -2c0,1 -1,2 -2,2 -1,0 -2,1 -3,1 -2,0 -4,-1 -5,-2 -2,-2 -3,-4 -3,-6 0,-2 1,-4 3,-6 1,-1 3,-2 5,-2 2,0 4,1 5,2l0 -2 4 0 0 15zm-4 -7c0,-2 0,-3 -1,-3 -1,-1 -2,-2 -3,-2 -2,0 -3,1 -4,2 0,0 -1,2 -1,3 0,1 1,2 1,3 1,1 2,1 4,1 1,0 2,0 3,-1 1,-1 1,-2 1,-3z"/>
  <polygon id="7" class="fil1" points="135,151 131,151 131,140 125,140 125,151 122,151 122,136 135,136 "/>
  <path id="8" class="fil1" d="M154 144c0,2 -1,4 -2,5 -2,2 -4,3 -6,3 -1,0 -2,0 -2,-1 -1,0 -2,-1 -3,-1l0 6 -3 0 0 -20 3 0 0 2c1,-1 1,-1 3,-2 0,0 1,0 2,0 2,0 4,1 5,2 2,2 3,3 3,6zm-4 0c0,-1 0,-2 -1,-3 -1,-1 -2,-2 -3,-2 -2,0 -3,1 -4,2 -1,0 -1,1 -1,3 0,1 0,2 1,3 1,1 2,1 3,1 2,0 3,0 4,-1 1,-1 1,-2 1,-3z"/>
  <path id="9" class="fil1" d="M171 144l0 0c0,1 0,1 0,1l-12 0c0,1 1,2 2,2 0,1 1,1 2,1 1,0 1,0 2,0 1,0 1,-1 2,-1l4 0c-1,1 -2,3 -3,3 -2,1 -3,2 -5,2 -2,0 -4,-1 -6,-3 -1,-1 -2,-3 -2,-5 0,-2 1,-4 2,-5 2,-2 4,-3 6,-3 3,0 5,1 6,2 2,2 2,4 2,6zm-4 -2c0,-1 0,-1 -1,-2 -1,0 -2,-1 -3,-1 -1,0 -1,1 -2,1 -1,1 -2,1 -2,2l8 0z"/>
  <polygon id="10" class="fil1" points="192,151 189,151 189,140 184,151 181,151 177,140 177,151 174,151 174,136 179,136 183,147 187,136 192,136 "/>
  <polygon class="fil0" points="164,0 250,77 240,77 164,9 36,121 0,121 56,71 56,32 71,32 71,58 138,0 "/>
 </g>
</svg>
