<?xml version="1.0" encoding="UTF-8"?>
<!DOCTYPE svg PUBLIC "-//W3C//DTD SVG 1.1//EN" "http://www.w3.org/Graphics/SVG/1.1/DTD/svg11.dtd">
<!-- Creator: CorelDRAW X8 -->
<svg xmlns="http://www.w3.org/2000/svg" xml:space="preserve" width="79.3748mm" height="49.2124mm" version="1.1" style="shape-rendering:geometricPrecision; text-rendering:geometricPrecision; image-rendering:optimizeQuality; fill-rule:evenodd; clip-rule:evenodd"
viewBox="0 0 7937 4921"
 xmlns:xlink="http://www.w3.org/1999/xlink">
 <defs>
  <style type="text/css">
   <![CDATA[
    .fil0 {fill:#FEFEFE}
    .fil1 {fill:#FEFEFE;fill-rule:nonzero}
   ]]>
  </style>
 </defs>
 <g id="Слой_x0020_1">
  <metadata id="CorelCorpID_0Corel-Layer"/>
  <g id="_820322176">
   <g>
    <rect class="fil0" x="5125" y="2216" width="834" height="1684"/>
    <rect class="fil0" x="4207" y="2216" width="834" height="801"/>
    <rect class="fil0" x="4207" y="3100" width="834" height="801"/>
   </g>
   <path class="fil0" d="M0 3729l1788 -1536 0 -1218 467 0 0 818c872,-749 1540,-1323 2078,-1787l854 0 0 0 151 130 -151 130 2432 2101 318 0 -2599 -2231 -4184 3593 -1154 0z"/>
   <path class="fil1" d="M627 4324l-134 0c-20,-25 -44,-43 -71,-57 -28,-13 -57,-20 -89,-20 -62,0 -114,21 -154,63 -41,41 -61,89 -61,145 0,58 21,108 62,149 42,42 93,63 154,62 29,0 57,-6 84,-17 27,-12 50,-30 69,-54l137 0c-28,56 -67,100 -118,132 -50,33 -109,49 -175,49 -94,0 -172,-31 -236,-92 -63,-62 -95,-139 -95,-229 0,-88 32,-163 96,-225 64,-62 143,-93 236,-93 66,0 125,17 177,50 52,32 91,78 118,137z"/>
   <polygon id="1" class="fil1" points="653,4302 996,4302 996,4400 881,4400 881,4761 767,4761 767,4400 653,4400 "/>
   <path id="2" class="fil1" d="M1051 4915l0 -613 105 0 0 60 2 0c14,-23 35,-41 62,-54 27,-14 57,-21 91,-21 66,0 123,23 169,68 46,46 70,104 70,177 0,67 -22,124 -66,172 -43,48 -101,72 -173,72 -28,0 -55,-5 -80,-15 -25,-10 -46,-27 -64,-49l-1 0 0 203 -115 0zm248 -523c-42,0 -76,14 -102,40 -25,26 -38,59 -38,100 0,43 12,77 38,102 25,25 57,38 98,38 40,0 74,-13 100,-40 26,-26 40,-60 40,-101 0,-40 -13,-73 -39,-99 -25,-27 -58,-40 -97,-40z"/>
   <path id="3" class="fil1" d="M1847 4287c71,0 131,24 180,72 48,48 72,106 72,174 0,68 -24,125 -72,172 -49,48 -109,71 -180,71 -72,0 -132,-23 -181,-71 -48,-47 -72,-104 -72,-172 0,-68 24,-126 72,-174 49,-48 109,-72 181,-72zm0 105c-41,0 -75,14 -100,41 -26,28 -38,61 -38,100 -1,38 12,71 37,98 26,27 60,41 101,41 41,0 74,-13 100,-40 25,-28 38,-61 38,-99 0,-39 -13,-72 -38,-100 -26,-27 -59,-41 -100,-41z"/>
   <path id="4" class="fil1" d="M2168 4302l114 0 0 298 212 -298 114 0 0 459 -114 0 0 -297 -212 297 -114 0 0 -459zm78 -167l86 0c3,12 10,22 20,28 10,7 22,10 36,10 14,0 26,-3 36,-10 10,-6 16,-16 20,-28l86 0c-5,32 -21,59 -47,81 -25,21 -57,31 -95,31 -38,0 -70,-10 -96,-31 -26,-22 -41,-49 -46,-81z"/>
   <polygon id="5" class="fil1" points="2701,4761 2701,4302 2815,4302 2815,4513 2985,4302 3121,4302 2931,4518 3131,4761 2987,4761 2815,4541 2815,4761 "/>
   <path id="6" class="fil1" d="M3673 4302l0 459 -105 0 0 -62 -1 0c-20,26 -44,45 -72,58 -28,12 -57,19 -87,19 -64,0 -119,-22 -164,-66 -46,-44 -69,-102 -69,-174 0,-71 23,-131 68,-178 46,-47 102,-71 168,-71 33,0 63,7 90,21 27,13 48,33 66,59l1 0 0 -65 105 0zm-244 90c-41,0 -75,13 -101,41 -26,27 -39,62 -39,103 0,40 12,72 38,98 26,25 60,38 102,38 41,0 74,-13 99,-39 25,-26 38,-60 38,-102 0,-40 -13,-73 -38,-99 -25,-27 -58,-40 -99,-40z"/>
   <polygon id="7" class="fil1" points="3766,4302 4171,4302 4171,4761 4057,4761 4057,4400 3880,4400 3880,4761 3766,4761 "/>
   <path id="8" class="fil1" d="M4264 4915l0 -613 105 0 0 60 2 0c14,-23 35,-41 62,-54 26,-14 57,-21 91,-21 66,0 122,23 169,68 46,46 69,104 69,177 0,67 -21,124 -65,172 -43,48 -101,72 -173,72 -28,0 -55,-5 -80,-15 -25,-10 -46,-27 -64,-49l-2 0 0 203 -114 0zm248 -523c-42,0 -76,14 -102,40 -26,26 -38,59 -38,100 0,43 12,77 37,102 26,25 58,38 98,38 41,0 74,-13 101,-40 26,-26 40,-60 40,-101 0,-40 -13,-73 -39,-99 -25,-27 -58,-40 -97,-40z"/>
   <path id="9" class="fil1" d="M5306 4581l-373 0c7,28 22,50 45,66 22,17 49,25 80,25 23,0 43,-3 61,-10 18,-8 33,-19 45,-33l129 0c-20,46 -50,82 -91,108 -40,26 -87,39 -140,39 -71,0 -131,-23 -179,-69 -48,-47 -72,-104 -72,-172 0,-68 24,-126 72,-175 49,-48 109,-73 181,-73 72,0 130,24 176,71 45,47 68,105 69,174 0,11 -1,20 -1,28 -1,7 -1,14 -2,21zm-374 -98l257 0c-8,-28 -23,-51 -46,-67 -23,-16 -49,-24 -79,-24 -32,0 -59,9 -83,25 -24,16 -40,38 -49,66z"/>
   <polygon id="10" class="fil1" points="5381,4761 5381,4302 5546,4302 5670,4627 5793,4302 5958,4302 5958,4761 5844,4761 5844,4424 5717,4761 5622,4761 5495,4424 5495,4761 "/>
  </g>
 </g>
</svg>
