<?xml version="1.0" standalone="no"?>
<!DOCTYPE svg PUBLIC "-//W3C//DTD SVG 20010904//EN"
 "http://www.w3.org/TR/2001/REC-SVG-20010904/DTD/svg10.dtd">
<svg version="1.0" xmlns="http://www.w3.org/2000/svg"
 width="1952.000000pt" height="1952.000000pt" viewBox="0 0 1952.000000 1952.000000"
 preserveAspectRatio="xMidYMid meet">
<metadata>
Created by potrace 1.11, written by Peter Selinger 2001-2013
</metadata>
<g transform="translate(0.000000,1952.000000) scale(0.100000,-0.100000)"
fill="#000000" stroke="none">
<path d="M10705 14310 c3 -5 3 -10 -2 -10 -4 0 -21 -11 -37 -25 -16 -14 -32
-25 -35 -25 -3 0 -20 -14 -38 -30 -18 -17 -37 -30 -42 -30 -6 0 -11 -4 -11 -8
0 -5 -20 -23 -45 -41 -24 -17 -50 -37 -57 -44 -7 -7 -55 -46 -107 -86 -52 -41
-102 -80 -110 -87 -9 -7 -59 -47 -111 -89 -52 -42 -115 -94 -140 -115 -25 -21
-61 -51 -80 -67 -19 -15 -44 -36 -55 -45 -11 -9 -51 -43 -90 -74 -38 -31 -71
-60 -73 -65 -2 -5 -10 -9 -17 -9 -8 0 -20 -8 -27 -17 -7 -10 -35 -36 -63 -58
-27 -21 -61 -49 -75 -62 -14 -12 -59 -50 -100 -84 -91 -75 -178 -150 -196
-166 -7 -7 -17 -13 -22 -13 -6 0 -12 -4 -14 -9 -1 -4 -34 -35 -73 -67 -38 -32
-72 -61 -75 -64 -3 -3 -45 -39 -95 -80 -49 -41 -96 -83 -103 -92 -7 -10 -20
-18 -28 -18 -8 0 -14 -4 -14 -8 0 -4 -35 -37 -77 -72 -78 -65 -134 -114 -159
-137 -7 -7 -18 -13 -24 -13 -6 0 -8 -4 -5 -10 3 -5 1 -10 -4 -10 -6 0 -19 -8
-29 -17 -24 -24 -126 -111 -160 -137 -15 -11 -31 -26 -37 -32 -10 -12 -53 -49
-149 -129 -27 -22 -61 -52 -77 -67 -16 -16 -34 -28 -41 -28 -6 0 -9 -3 -5 -6
6 -6 -47 -52 -110 -96 -18 -13 -33 -29 -33 -35 0 -7 -5 -13 -10 -13 -9 0 -53
-36 -106 -87 -7 -7 -15 -13 -18 -13 -3 0 -18 -12 -34 -27 -17 -16 -53 -48 -82
-73 -29 -25 -58 -50 -64 -55 -6 -6 -45 -39 -86 -74 -41 -35 -100 -85 -130
-111 -30 -26 -95 -83 -145 -125 -131 -113 -206 -178 -227 -197 -10 -10 -22
-18 -27 -18 -5 0 -11 -4 -13 -9 -2 -7 -112 -105 -192 -170 -10 -9 -29 -26 -42
-38 -13 -13 -25 -23 -28 -23 -3 0 -21 -15 -40 -32 -19 -18 -43 -40 -54 -48
-24 -19 -139 -119 -164 -142 -10 -10 -22 -18 -28 -18 -5 0 -10 -3 -10 -7 0 -5
-28 -30 -61 -58 -34 -27 -71 -59 -83 -70 -12 -11 -44 -38 -70 -60 -27 -22 -56
-47 -65 -55 -9 -8 -43 -37 -76 -65 -33 -27 -73 -62 -90 -76 -16 -15 -68 -59
-115 -98 -47 -39 -100 -85 -118 -101 -18 -16 -44 -37 -57 -46 -25 -16 -25 -16
-26 17 -1 19 -1 42 -1 52 0 9 1 28 1 42 2 61 3 81 5 100 1 11 -1 35 -5 53 -4
17 -3 34 1 37 5 3 5 18 1 33 -5 15 -5 36 -1 47 4 11 4 29 0 41 -5 11 -5 27 0
34 4 7 4 25 0 40 -4 15 -4 33 0 40 4 6 4 27 0 46 -4 19 -4 36 0 39 4 3 4 21 0
40 -4 19 -4 37 0 40 5 3 5 18 1 33 -5 15 -5 36 -1 47 4 11 4 32 -1 47 -4 15
-4 30 1 33 4 3 4 21 0 40 -4 19 -4 37 0 40 4 3 4 21 0 40 -4 19 -4 37 0 40 5
3 5 18 1 33 -5 15 -5 36 -1 47 4 11 4 32 -1 47 -4 15 -4 30 1 33 4 3 4 21 0
40 -4 19 -4 37 0 40 5 3 5 18 1 33 -5 15 -5 36 -1 47 4 11 4 29 0 41 -5 11 -5
27 0 34 4 7 5 24 1 39 -3 14 -5 40 -4 56 2 17 3 41 3 55 -1 32 0 60 3 85 2 11
0 37 -4 58 -3 20 -4 37 0 37 13 0 1 134 -14 149 -9 9 -15 11 -15 4 0 -12 -24
-12 -36 0 -4 3 -15 2 -25 -4 -12 -6 -19 -6 -19 0 0 6 -11 6 -30 1 -18 -5 -32
-5 -35 1 -4 5 -14 5 -25 -1 -13 -7 -21 -7 -25 0 -4 7 -13 7 -26 0 -12 -7 -19
-7 -19 -1 0 6 -11 6 -30 1 -18 -5 -32 -5 -35 1 -4 5 -14 5 -25 -1 -13 -7 -21
-7 -25 0 -4 7 -13 7 -26 0 -10 -6 -19 -7 -19 -2 0 5 -23 6 -50 2 -28 -4 -50
-4 -50 0 0 5 -47 5 -60 0 -3 -1 -9 -1 -15 0 -38 8 -45 8 -45 0 0 -6 -10 -6
-25 0 -14 5 -25 6 -25 2 0 -4 -16 -7 -35 -7 -19 0 -35 3 -35 7 0 4 -13 3 -30
-2 -16 -5 -30 -5 -30 -2 0 9 -64 7 -79 -3 -6 -3 -11 -1 -11 5 0 6 -5 8 -11 5
-16 -10 -79 -12 -79 -2 0 4 -9 3 -20 -3 -13 -7 -20 -7 -20 -1 0 7 -9 7 -25 1
-18 -7 -25 -6 -25 2 0 8 -3 8 -9 2 -12 -11 -19 -174 -8 -174 5 0 6 -4 3 -8 -3
-5 -5 -33 -5 -63 -1 -67 -2 -96 -4 -182 -1 -37 2 -67 6 -67 5 0 6 -4 3 -8 -4
-7 -7 -73 -5 -122 0 -18 0 -176 -1 -283 0 -27 2 -52 5 -57 3 -5 1 -11 -3 -14
-5 -3 -6 -26 -2 -51 4 -24 5 -47 2 -50 -6 -6 -6 -114 0 -121 3 -2 2 -22 -2
-44 -4 -21 -4 -44 0 -50 4 -6 4 -26 1 -43 -4 -18 -4 -51 -1 -75 4 -23 4 -45 0
-47 -4 -2 -4 -25 0 -50 4 -24 5 -47 2 -50 -2 -2 -5 -29 -5 -60 0 -31 3 -58 5
-60 3 -3 2 -26 -2 -50 -4 -25 -4 -47 -1 -50 4 -2 4 -31 1 -65 -3 -33 -3 -65 0
-69 3 -5 3 -48 0 -95 -3 -47 -1 -86 3 -86 5 0 6 -4 3 -8 -3 -5 -5 -33 -5 -63
-1 -67 -2 -96 -4 -182 -1 -37 2 -67 6 -67 5 0 6 -4 3 -8 -4 -7 -7 -65 -6 -127
1 -35 1 -239 0 -255 0 -8 0 -32 0 -52 1 -21 -3 -38 -7 -38 -4 0 -26 -17 -48
-36 -22 -20 -51 -46 -65 -57 -112 -96 -165 -143 -168 -149 -2 -5 -8 -8 -12 -8
-5 0 -20 -10 -32 -22 -31 -30 -144 -128 -188 -164 -19 -15 -53 -44 -76 -64
-74 -65 -108 -94 -219 -189 -60 -51 -126 -107 -146 -125 -19 -17 -58 -50 -85
-73 -27 -23 -60 -51 -74 -63 -14 -12 -45 -38 -69 -58 -24 -21 -53 -46 -65 -57
-12 -11 -44 -39 -72 -62 -27 -23 -60 -51 -74 -63 -14 -12 -45 -38 -69 -58 -24
-21 -53 -46 -65 -57 -12 -11 -44 -39 -72 -62 -27 -23 -60 -51 -74 -63 -14 -12
-45 -38 -69 -58 -24 -21 -53 -46 -65 -57 -13 -12 -44 -39 -71 -60 -27 -22 -58
-49 -70 -60 -11 -11 -47 -42 -80 -70 -32 -27 -64 -56 -71 -62 -7 -7 -16 -13
-20 -13 -3 0 -14 -8 -23 -18 -15 -16 -117 -106 -185 -163 -16 -13 -34 -28 -40
-34 -6 -5 -43 -37 -81 -70 -39 -33 -72 -63 -73 -67 -2 -5 -8 -8 -12 -8 -5 0
-20 -10 -32 -23 -25 -23 -68 -61 -252 -217 -42 -35 -76 -68 -76 -72 0 -5 -5
-8 -10 -8 -6 0 -25 -13 -43 -29 -36 -33 -61 -55 -127 -111 -25 -21 -55 -47
-66 -57 -12 -10 -45 -38 -74 -63 -29 -25 -62 -53 -74 -63 -11 -10 -43 -37 -71
-60 -27 -23 -62 -54 -77 -70 -15 -15 -30 -27 -33 -27 -4 0 -12 -6 -19 -12 -7
-7 -39 -35 -71 -63 -32 -27 -63 -54 -69 -60 -6 -5 -40 -35 -76 -65 -36 -30
-67 -57 -70 -60 -3 -3 -34 -30 -70 -60 -36 -30 -70 -59 -76 -65 -6 -5 -32 -28
-59 -50 -26 -22 -53 -45 -59 -50 -6 -6 -47 -42 -91 -80 -44 -38 -83 -74 -87
-80 -4 -5 -8 -7 -8 -3 0 4 -10 -3 -23 -15 -35 -33 -150 -134 -192 -167 l-38
-30 1444 0 1444 0 41 38 c22 20 62 56 90 79 27 23 63 53 79 68 17 14 50 43 75
63 24 20 51 44 60 52 9 8 40 35 69 60 29 25 66 57 83 72 16 16 31 28 33 28 3
0 13 8 24 18 37 35 79 71 221 192 80 68 147 126 150 129 3 3 34 31 70 61 36
30 70 59 76 65 6 5 38 33 70 60 32 28 66 58 76 68 10 9 18 15 18 12 0 -2 13 8
28 23 53 50 101 92 107 92 3 0 20 15 39 33 18 17 52 48 75 67 23 19 52 44 65
55 21 19 48 42 160 138 28 23 57 49 66 57 9 8 43 38 75 65 59 50 107 91 129
110 6 6 40 35 76 65 35 30 72 62 81 70 9 8 39 34 66 56 77 67 138 119 143 124
3 3 34 30 70 60 36 30 72 61 81 70 9 8 38 33 65 55 27 22 61 51 76 65 14 14
41 36 58 50 17 14 44 36 58 50 15 14 51 45 81 70 29 25 63 54 75 65 13 11 36
31 52 44 16 14 63 54 104 89 41 35 89 76 106 91 44 37 150 129 204 176 25 22
68 58 94 80 49 40 94 80 131 113 11 10 54 47 95 82 41 35 80 69 86 74 7 6 33
29 59 51 26 22 57 49 70 60 12 11 44 38 70 60 26 22 63 54 81 70 19 17 40 35
46 40 7 6 92 78 188 160 96 82 186 159 199 170 12 11 33 29 45 40 13 11 49 43
82 70 32 28 71 61 86 75 16 14 34 30 41 35 20 16 167 142 222 190 28 24 61 54
75 65 14 12 36 31 50 43 14 12 57 48 95 81 39 32 72 61 75 65 3 3 32 28 65 56
33 27 65 54 71 60 10 9 92 80 151 130 13 11 39 34 57 50 19 17 51 44 71 60 20
17 53 45 73 63 21 18 54 48 75 65 21 18 49 41 61 52 12 11 47 41 77 67 30 25
64 54 75 65 12 10 43 36 68 57 26 21 60 51 75 65 16 14 48 42 71 61 24 19 53
44 65 55 13 11 46 40 75 65 29 25 62 54 75 65 13 11 44 38 71 60 26 22 63 55
82 73 20 17 38 32 42 32 3 0 23 17 45 38 22 21 74 67 115 102 41 35 77 66 80
69 3 3 32 28 65 56 68 57 120 102 147 128 10 9 22 17 27 17 5 0 11 4 13 8 3 8
103 97 176 158 13 10 34 28 46 39 22 20 89 76 136 116 14 11 55 48 93 81 37
33 79 70 94 82 15 11 35 28 43 36 9 8 38 34 65 57 28 23 61 51 75 63 14 12 47
40 74 63 28 23 61 52 74 65 14 12 46 40 71 61 25 22 57 49 71 61 14 12 45 38
69 58 24 20 82 71 130 112 48 41 116 100 151 130 35 30 75 65 88 78 14 12 38
33 54 45 16 12 46 38 68 57 21 19 56 49 77 67 21 17 54 46 73 63 19 17 52 45
73 63 22 18 47 39 57 47 28 24 130 112 164 143 17 15 59 51 94 79 34 28 62 55
62 60 0 4 5 8 10 8 6 0 18 8 28 18 10 9 42 37 71 62 30 25 67 57 83 73 16 15
31 27 33 27 3 0 20 15 39 33 19 17 44 41 57 51 33 27 181 153 213 181 6 6 43
37 81 70 73 62 96 83 155 134 74 64 37 17 -73 -92 -130 -129 -126 -116 -42
-182 21 -16 55 -46 75 -65 20 -19 52 -47 71 -62 19 -15 53 -44 76 -65 23 -21
61 -54 85 -73 23 -19 57 -48 75 -65 42 -39 46 -42 207 -180 32 -27 68 -58 80
-68 11 -11 46 -40 76 -65 30 -26 72 -63 95 -83 22 -20 51 -45 65 -57 14 -11
39 -33 55 -47 17 -15 70 -61 120 -103 49 -42 97 -84 105 -92 22 -20 123 -108
224 -193 27 -23 54 -47 60 -52 6 -6 45 -39 86 -75 41 -35 80 -69 86 -74 6 -6
38 -33 70 -61 32 -27 66 -58 76 -67 10 -10 23 -18 28 -18 6 0 10 -3 10 -8 0
-4 35 -37 77 -72 42 -36 92 -79 110 -97 18 -17 33 -29 33 -27 0 3 11 -5 23
-18 13 -13 50 -45 82 -73 33 -27 69 -59 81 -70 12 -11 46 -40 74 -64 29 -25
58 -50 64 -55 6 -6 40 -36 76 -66 36 -30 70 -60 76 -65 6 -6 39 -35 74 -65 34
-30 69 -61 76 -67 7 -7 17 -13 23 -13 5 0 13 -9 16 -21 4 -11 9 -18 12 -15 3
2 15 -4 27 -15 11 -12 38 -35 60 -52 21 -18 48 -41 60 -53 11 -11 50 -45 86
-75 36 -30 80 -68 98 -86 17 -18 32 -30 32 -27 0 3 23 -16 51 -43 28 -26 55
-49 59 -51 5 -2 24 -18 43 -35 18 -18 57 -52 86 -77 29 -25 66 -56 81 -70 15
-14 52 -45 80 -70 90 -77 119 -102 210 -180 14 -12 50 -43 79 -68 48 -41 142
-124 177 -156 7 -6 26 -22 44 -36 18 -14 42 -34 54 -46 11 -11 55 -49 96 -85
41 -35 80 -68 86 -74 6 -5 32 -28 59 -50 26 -22 60 -51 75 -65 15 -14 49 -43
75 -65 27 -22 53 -45 59 -51 6 -5 45 -39 86 -74 41 -36 80 -69 86 -75 6 -5 37
-32 69 -60 33 -27 77 -66 99 -86 23 -20 52 -44 65 -55 13 -10 29 -24 36 -31 7
-6 34 -31 61 -54 66 -56 153 -131 189 -164 53 -46 79 -69 158 -135 42 -35 77
-68 77 -72 0 -4 4 -8 10 -8 5 0 20 -10 32 -22 23 -23 105 -94 183 -159 22 -19
42 -36 45 -39 3 -3 34 -30 70 -60 36 -30 70 -61 76 -69 8 -10 13 -11 18 -2 4
6 12 9 17 6 12 -8 99 -12 99 -5 0 7 69 4 76 -3 4 -4 14 -2 24 3 10 5 20 7 23
4 5 -6 86 -8 112 -4 15 3 75 1 113 -3 17 -2 32 0 32 5 0 4 10 4 23 -1 12 -5
32 -5 45 0 13 5 21 5 18 1 -2 -4 20 -5 50 -2 31 3 54 2 54 -3 0 -5 6 -5 13 1
7 6 18 7 25 3 8 -4 24 -6 37 -4 21 5 17 10 -44 61 -36 31 -71 61 -77 67 -6 6
-31 27 -54 46 -23 18 -47 39 -54 44 -6 6 -56 49 -111 95 -55 47 -105 89 -111
95 -6 5 -33 28 -60 50 -26 22 -58 49 -70 60 -12 11 -33 29 -46 39 -34 28 -141
119 -154 131 -6 6 -32 28 -59 50 -26 22 -60 51 -76 65 -33 29 -57 50 -124 105
-26 22 -53 45 -59 50 -6 6 -40 35 -76 65 -35 30 -76 65 -90 77 -49 42 -68 58
-105 87 -20 16 -50 42 -66 57 -17 16 -48 43 -70 61 -23 18 -51 42 -63 53 -12
11 -44 38 -70 60 -27 22 -61 52 -77 66 -15 14 -44 39 -65 55 -20 16 -47 38
-59 49 -38 33 -77 67 -140 120 -33 27 -62 52 -65 55 -3 3 -32 27 -65 54 -62
51 -68 57 -121 104 -17 15 -53 45 -80 67 -27 22 -61 51 -76 65 -14 14 -35 32
-45 40 -83 68 -131 108 -149 125 -12 11 -32 29 -45 39 -31 25 -217 183 -285
243 -12 10 -41 34 -64 53 -62 52 -122 103 -142 123 -10 9 -20 17 -23 17 -3 0
-16 10 -28 23 -12 12 -47 43 -77 67 -30 25 -64 54 -76 65 -11 11 -37 34 -58
50 -22 17 -44 35 -50 40 -14 14 -205 176 -229 195 -11 8 -26 21 -34 29 -7 7
-33 29 -56 48 -84 70 -141 119 -164 141 -12 13 -23 21 -23 18 0 -2 -18 12 -39
32 -22 20 -48 44 -59 52 -22 18 -104 86 -136 115 -12 11 -44 38 -70 60 -27 22
-54 45 -60 50 -6 6 -56 48 -111 95 -55 46 -102 86 -105 90 -3 3 -27 23 -55 45
-27 21 -57 46 -65 55 -8 8 -42 37 -75 64 -33 28 -67 57 -76 65 -8 9 -35 32
-59 51 -24 19 -53 44 -64 55 -12 11 -41 36 -66 56 -25 20 -57 48 -72 62 -15
14 -44 38 -65 54 -21 15 -44 35 -53 43 -9 8 -40 36 -70 62 -52 44 -299 253
-403 342 -27 22 -61 51 -75 64 -57 49 -71 61 -192 162 -69 58 -130 110 -136
116 -6 5 -35 30 -64 55 -29 24 -64 54 -78 67 -14 12 -39 33 -55 45 -16 12 -44
37 -63 55 -19 17 -36 32 -39 32 -2 0 -83 79 -180 175 l-175 175 -1051 0 c-697
0 -1048 -3 -1044 -10z m2365 -364 c0 -2 -7 -9 -15 -16 -13 -11 -14 -10 -9 4 5
14 24 23 24 12z"/>
<path d="M10708 9364 c-2 -2 -36 -4 -75 -5 l-71 -1 -1 -62 c-1 -33 -1 -70 -1
-81 0 -11 0 -31 -1 -45 0 -14 0 -32 0 -40 1 -8 1 -26 0 -40 0 -14 0 -32 0 -40
1 -8 1 -26 0 -40 -2 -43 -2 -69 1 -160 1 -14 1 -32 0 -40 0 -8 0 -26 1 -40 0
-14 0 -31 0 -37 -1 -7 -1 -21 -1 -30 0 -10 0 -31 -1 -48 0 -16 0 -39 1 -50 1
-11 1 -27 0 -35 0 -8 0 -26 1 -40 0 -14 0 -32 0 -40 -1 -8 -1 -24 -1 -35 1
-11 1 -27 1 -35 -1 -8 -1 -28 0 -45 1 -67 1 -81 0 -107 -2 -70 -3 -84 -2 -98
1 -8 1 -26 0 -40 0 -14 0 -32 0 -40 2 -18 0 -58 -3 -85 -1 -11 1 -34 5 -51 3
-18 3 -38 -1 -44 -4 -7 -4 -26 0 -41 5 -16 5 -31 0 -34 -5 -3 -5 -18 0 -34 4
-15 4 -34 0 -41 -4 -7 -4 -24 0 -39 4 -14 4 -35 0 -46 -4 -11 -4 -29 0 -41 5
-11 5 -27 0 -34 -5 -7 -4 -23 0 -36 5 -12 6 -25 3 -28 -12 -12 -3 -80 12 -95
9 -9 15 -11 15 -4 0 12 24 12 36 0 4 -3 15 -2 25 4 11 5 19 6 19 2 0 -9 63 -8
79 1 5 4 12 2 16 -4 4 -6 11 -7 17 -4 15 10 68 11 68 2 0 -4 14 -3 30 2 17 5
30 5 30 2 0 -9 64 -7 79 3 6 3 11 1 11 -5 0 -8 6 -7 21 1 15 7 24 8 32 0 6 -6
16 -7 28 -1 11 7 20 7 24 0 4 -7 13 -7 26 0 10 6 19 7 19 3 0 -9 63 -8 79 1 5
4 12 2 16 -4 4 -6 11 -7 17 -4 15 10 68 11 68 2 0 -4 14 -3 30 2 17 5 30 5 30
2 0 -9 64 -7 79 2 5 4 13 2 16 -4 5 -8 11 -7 21 1 11 9 14 9 14 0 0 -8 5 -9
19 -1 14 7 22 7 26 0 4 -6 11 -7 17 -4 15 10 68 11 68 2 0 -4 14 -3 30 2 17 5
30 5 30 2 0 -9 64 -7 79 3 6 3 11 1 11 -5 0 -8 6 -7 21 1 15 7 24 8 32 0 6 -6
16 -7 28 -1 11 7 20 7 24 0 4 -7 13 -7 26 0 10 6 19 7 19 3 0 -9 63 -8 79 1 5
4 12 2 16 -4 4 -6 11 -7 17 -4 15 10 68 11 68 2 0 -4 14 -3 30 2 17 5 30 5 30
2 0 -9 64 -7 79 3 6 3 11 1 11 -5 0 -8 6 -7 21 1 15 7 24 8 32 0 6 -6 16 -7
28 -1 11 7 20 7 24 0 4 -7 13 -7 26 0 10 6 19 7 19 3 0 -9 63 -8 79 1 5 4 12
2 16 -4 4 -6 12 -7 18 -3 16 10 38 10 59 1 12 -6 21 -1 33 14 9 13 11 24 5 26
-6 2 -6 10 -1 20 13 25 13 25 2 55 -6 16 -7 27 -1 27 6 0 6 10 0 26 -6 15 -6
23 -1 19 6 -3 6 6 2 23 -5 16 -5 36 1 45 6 11 5 17 -2 17 -7 0 -8 6 -1 18 6
11 6 24 0 34 -6 11 -6 19 1 23 7 4 6 14 -2 28 -6 12 -11 22 -11 22 0 0 5 10
12 23 8 15 8 22 1 22 -8 0 -8 6 0 20 8 14 8 20 0 20 -8 0 -8 6 0 20 8 14 8 20
0 20 -7 0 -8 6 -1 18 5 9 10 19 12 22 1 3 -3 15 -9 26 -6 12 -8 24 -5 28 9 9
10 56 1 56 -4 0 -3 12 3 27 7 19 7 29 0 31 -6 2 -9 8 -6 13 9 14 12 89 3 89
-3 0 -3 12 1 28 5 15 4 37 0 50 -5 13 -5 22 2 22 6 0 6 6 0 18 -7 13 -7 22 0
29 8 8 7 13 0 17 -7 5 -8 13 -2 24 13 25 13 25 2 55 -6 16 -7 27 -1 27 6 0 6
10 0 26 -6 15 -6 23 -1 19 6 -3 6 6 2 23 -5 16 -5 36 1 45 6 11 5 17 -2 17 -7
0 -8 6 -1 18 6 11 6 24 0 34 -6 11 -6 19 1 23 6 4 7 13 1 23 -5 9 -10 19 -12
22 -1 3 3 15 10 28 8 15 8 22 1 22 -8 0 -8 6 0 20 8 14 8 20 0 20 -8 0 -8 6 0
20 8 14 8 20 0 20 -7 0 -8 6 -1 18 5 9 10 19 12 22 1 3 -3 15 -9 26 -6 12 -8
24 -5 28 9 9 10 56 1 56 -4 0 -3 12 3 27 7 19 7 29 0 31 -6 2 -9 8 -6 13 8 12
12 89 5 89 -6 0 -5 64 2 76 10 16 -11 54 -29 55 -10 0 -56 0 -103 -1 -47 -1
-92 -1 -100 -1 -32 2 -116 0 -145 -2 -16 -1 -45 1 -63 4 -17 4 -34 3 -37 -1
-2 -4 -24 -4 -47 0 -24 5 -46 7 -49 5 -3 -3 -37 -4 -75 -5 -38 0 -94 0 -124 0
-30 0 -68 -1 -85 -3 -16 -1 -45 1 -63 4 -17 4 -34 3 -37 -1 -2 -4 -24 -4 -47
0 -24 5 -46 7 -49 5 -3 -3 -37 -4 -75 -5 -38 0 -94 0 -124 0 -30 0 -68 -1 -85
-3 -16 -1 -45 1 -63 4 -17 4 -34 3 -37 -1 -2 -4 -24 -4 -47 0 -24 5 -46 7 -49
5 -3 -3 -37 -4 -75 -5 -38 0 -96 0 -129 0 -33 -1 -78 -1 -100 -1 -22 0 -52 2
-67 4 -14 3 -28 4 -30 1z"/>
<path d="M12860 9361 c0 -4 -13 -6 -30 -3 -21 3 -30 0 -31 -9 -3 -46 0 -110 6
-119 3 -5 3 -10 -2 -10 -8 0 -8 -83 1 -105 2 -6 0 -18 -4 -25 -5 -8 -4 -22 1
-31 6 -11 5 -20 -1 -24 -6 -4 -6 -15 0 -30 5 -14 6 -25 2 -25 -4 0 -7 -15 -7
-34 0 -19 3 -32 7 -29 5 2 4 -7 -2 -21 -6 -16 -6 -26 0 -26 6 0 6 -9 0 -25 -6
-15 -6 -26 1 -30 6 -4 6 -13 0 -23 -6 -10 -6 -23 0 -34 5 -9 6 -19 1 -22 -8
-5 -7 -79 2 -101 2 -6 0 -18 -4 -25 -5 -8 -4 -22 1 -31 6 -11 5 -20 -1 -24 -6
-4 -6 -15 0 -30 5 -14 6 -25 2 -25 -7 0 -6 -84 2 -105 2 -6 0 -18 -4 -25 -5
-8 -4 -22 1 -31 6 -11 5 -20 -1 -24 -6 -4 -6 -15 0 -30 5 -14 6 -25 2 -25 -7
0 -6 -84 2 -105 2 -6 0 -18 -4 -25 -5 -8 -4 -22 1 -31 6 -11 5 -20 -1 -24 -6
-4 -6 -15 0 -30 5 -14 6 -25 2 -25 -4 0 -7 -15 -7 -34 0 -19 3 -32 7 -29 5 2
4 -7 -2 -21 -6 -16 -6 -26 0 -26 6 0 6 -9 0 -25 -6 -15 -6 -26 0 -30 6 -4 7
-13 1 -23 -6 -11 -6 -24 0 -34 5 -9 6 -19 1 -22 -8 -5 -7 -79 2 -101 2 -6 0
-18 -4 -25 -5 -8 -4 -22 1 -31 6 -11 5 -20 -1 -24 -6 -4 -6 -15 0 -30 5 -14 6
-25 2 -25 -4 0 -7 -15 -7 -34 0 -19 3 -32 7 -29 5 2 4 -7 -2 -21 -6 -16 -6
-26 0 -26 6 0 6 -9 0 -25 -6 -15 -6 -26 0 -30 6 -4 7 -13 1 -23 -6 -11 -6 -24
0 -34 5 -9 6 -19 1 -22 -8 -5 -7 -79 2 -101 2 -6 0 -18 -4 -25 -5 -8 -4 -22 1
-31 6 -11 5 -20 -1 -24 -6 -4 -6 -15 0 -30 5 -14 6 -25 2 -25 -4 0 -7 -15 -7
-34 0 -19 3 -32 7 -29 5 2 4 -7 -2 -21 -6 -16 -6 -26 0 -26 6 0 6 -9 0 -25 -6
-15 -6 -26 0 -30 6 -4 7 -13 1 -24 -6 -10 -6 -23 -1 -31 5 -8 6 -19 2 -24 -7
-12 -6 -96 2 -104 3 -2 1 -13 -4 -23 -7 -12 -7 -20 0 -24 6 -4 7 -13 1 -24 -6
-10 -6 -23 -1 -31 5 -8 5 -19 0 -25 -5 -6 -5 -17 0 -25 5 -8 5 -21 0 -30 -5
-9 -5 -22 0 -29 4 -8 4 -27 0 -42 -5 -17 -5 -29 0 -29 6 0 6 -10 1 -23 -5 -13
-5 -30 -1 -37 5 -8 5 -19 0 -25 -5 -6 -5 -17 0 -25 5 -8 5 -21 0 -30 -5 -9 -5
-22 0 -29 4 -8 4 -27 0 -42 -5 -17 -5 -29 0 -29 6 0 6 -9 1 -23 -5 -13 -5 -30
0 -39 6 -11 5 -19 -1 -23 -6 -4 -7 -13 -1 -24 6 -10 6 -23 1 -31 -5 -8 -4 -22
1 -32 5 -10 6 -18 2 -18 -9 0 -9 -107 0 -116 4 -4 2 -15 -3 -25 -7 -12 -7 -20
0 -24 6 -4 7 -13 1 -24 -5 -9 -6 -23 -1 -30 4 -8 4 -27 0 -42 -5 -17 -5 -29 0
-29 6 0 6 -10 1 -23 -5 -13 -5 -30 -1 -37 5 -8 5 -19 0 -25 -5 -6 -5 -17 0
-25 5 -8 5 -21 0 -30 -5 -9 -5 -22 0 -29 4 -8 4 -27 0 -42 -5 -17 -5 -29 0
-29 6 0 6 -10 1 -23 -5 -13 -5 -30 -1 -37 5 -8 5 -19 0 -25 -5 -6 -5 -17 0
-25 5 -8 5 -21 0 -30 -5 -9 -5 -22 0 -29 4 -8 4 -27 0 -42 -5 -17 -5 -29 0
-29 5 0 7 -7 4 -15 -5 -13 114 -15 1034 -15 l1040 0 4 65 c1 36 1 65 -2 65 -3
0 -4 42 -2 92 4 145 3 258 -3 269 -4 5 -3 9 2 9 4 0 7 28 6 62 -4 84 -5 211
-2 223 1 6 1 13 1 16 -1 6 -1 46 -2 237 0 46 -2 88 -6 93 -3 5 -2 9 3 9 4 0 7
28 6 62 -4 84 -5 211 -2 223 1 6 1 13 1 16 -1 6 -1 46 -2 237 0 46 -2 88 -6
93 -3 5 -2 9 3 9 4 0 7 28 6 62 -4 84 -5 211 -2 223 1 6 1 13 1 16 -1 6 -1 46
-2 237 0 46 -2 88 -6 93 -3 5 -2 9 3 9 4 0 7 28 6 62 -4 84 -5 211 -2 223 1 6
1 13 1 16 -1 6 -1 46 -2 237 0 46 -2 88 -6 93 -3 5 -2 9 3 9 4 0 7 28 6 62 -4
84 -5 211 -2 223 1 6 1 13 1 16 -1 6 -1 46 -2 237 0 46 -2 88 -6 93 -3 5 -2 9
3 9 4 0 7 28 6 62 -4 84 -5 211 -2 223 1 6 1 13 1 16 -1 4 -2 41 -3 83 l-2 76
-46 1 c-56 1 -137 -1 -171 -4 -14 -1 -40 1 -58 4 -17 4 -34 3 -37 -1 -2 -4
-24 -4 -47 0 -24 5 -46 7 -49 5 -3 -3 -37 -4 -75 -5 -38 0 -94 0 -124 0 -30 0
-68 -1 -85 -3 -16 -1 -45 1 -63 4 -17 4 -34 3 -37 -1 -2 -4 -24 -4 -47 0 -24
5 -46 7 -49 5 -3 -3 -37 -4 -75 -5 -38 0 -94 0 -124 0 -30 0 -68 -1 -85 -3
-16 -1 -45 1 -63 4 -17 4 -34 3 -37 -1 -2 -4 -24 -4 -47 0 -24 5 -46 7 -49 5
-3 -3 -37 -4 -75 -5 -38 0 -94 0 -124 0 -30 0 -68 -1 -85 -3 -16 -1 -45 1 -63
4 -17 4 -34 3 -37 -1 -2 -4 -22 -4 -42 -1 -21 4 -71 4 -111 1 -40 -3 -81 -2
-92 2 -11 4 -20 4 -20 -1z"/>
<path d="M10571 7116 c-11 -13 -12 -29 -10 -111 1 -16 1 -37 0 -45 -1 -8 -1
-24 -1 -35 1 -11 1 -27 0 -35 0 -8 0 -26 1 -40 0 -14 0 -31 0 -37 -1 -7 -1
-21 -1 -30 0 -10 0 -31 -1 -48 0 -16 0 -39 1 -50 1 -11 1 -27 0 -35 0 -8 0
-26 1 -40 0 -14 0 -32 0 -40 -1 -8 -1 -24 -1 -35 1 -11 1 -27 1 -35 -1 -8 -1
-28 0 -45 1 -67 1 -81 0 -107 -2 -70 -3 -84 -2 -98 1 -8 1 -26 0 -40 0 -14 0
-32 0 -40 2 -18 0 -58 -3 -85 -1 -11 1 -34 5 -51 3 -18 3 -38 -1 -44 -4 -7 -4
-26 0 -41 5 -16 5 -31 0 -34 -5 -3 -5 -18 0 -34 4 -15 4 -34 0 -41 -4 -7 -4
-24 0 -39 4 -14 4 -35 0 -46 -4 -11 -4 -29 0 -41 5 -11 5 -27 0 -34 -5 -7 -5
-23 0 -34 4 -12 4 -30 0 -41 -4 -11 -4 -32 1 -47 4 -15 4 -30 -1 -33 -4 -3 -5
-20 -1 -37 4 -18 6 -42 5 -53 -1 -11 -3 -32 -3 -47 -1 -16 -1 -40 -2 -55 0
-16 0 -35 0 -43 2 -27 1 -59 -1 -72 -3 -11 191 -13 1032 -16 569 -1 1041 0
1049 3 10 4 10 9 2 19 -6 7 -8 15 -6 18 11 11 14 48 4 48 -6 0 -7 4 -4 10 9
14 12 90 3 90 -3 0 -3 12 1 28 5 15 4 37 0 50 -5 13 -5 22 2 22 6 0 6 6 0 18
-7 13 -7 22 0 29 8 8 7 13 0 17 -8 5 -8 13 1 29 6 12 11 22 10 22 0 0 -5 12
-11 28 -6 16 -7 27 -1 27 6 0 6 10 0 26 -6 15 -6 23 -1 19 6 -3 6 6 2 23 -5
16 -5 36 1 45 6 11 5 17 -2 17 -7 0 -8 6 -1 18 6 11 6 24 0 34 -6 11 -6 19 1
23 7 4 6 14 -2 28 -6 12 -11 22 -11 22 0 0 5 10 12 23 8 15 8 22 1 22 -8 0 -8
6 0 20 8 14 8 20 0 20 -8 0 -8 6 0 20 8 14 8 20 0 20 -7 0 -7 7 1 23 7 12 12
22 12 22 0 0 -5 10 -11 21 -6 12 -8 24 -5 28 9 9 10 56 1 56 -4 0 -3 12 3 27
7 19 7 29 0 31 -6 2 -9 8 -6 13 9 14 12 89 3 89 -3 0 -3 12 1 28 5 15 4 37 0
50 -5 13 -5 22 2 22 6 0 6 6 0 18 -7 13 -7 22 0 29 8 8 7 13 0 17 -8 5 -8 13
1 29 6 12 11 22 10 22 0 0 -5 12 -11 28 -6 16 -7 27 -1 27 6 0 6 10 0 26 -6
15 -6 23 -1 19 6 -3 6 6 2 23 -5 16 -5 36 1 45 6 11 5 17 -2 17 -7 0 -8 6 -1
18 6 11 6 24 0 34 -6 11 -6 19 1 23 7 4 6 14 -2 28 -6 12 -10 24 -9 27 2 3 7
13 12 23 7 11 6 17 -1 17 -8 0 -8 6 0 20 8 14 8 20 0 20 -8 0 -8 6 0 20 8 14
8 20 0 20 -7 0 -8 6 -2 18 9 19 8 59 -2 69 -3 3 -1 12 4 18 8 9 5 14 -10 18
-11 3 -20 1 -20 -4 0 -5 -11 -4 -25 1 -15 6 -26 6 -30 0 -4 -7 -13 -6 -25 0
-10 6 -21 6 -24 2 -4 -7 -38 -8 -56 -2 -15 6 -58 4 -78 -2 -15 -5 -21 -4 -17
2 4 6 -2 7 -18 1 -13 -5 -30 -5 -37 -1 -8 5 -19 5 -26 -1 -8 -7 -14 -6 -19 1
-5 7 -11 8 -19 1 -6 -5 -17 -6 -25 -2 -7 4 -30 5 -51 1 -22 -4 -42 -5 -45 -2
-9 9 -55 8 -55 -1 0 -4 -4 -5 -10 -2 -15 9 -80 12 -80 3 0 -4 -11 -3 -25 2
-15 6 -26 6 -30 0 -4 -7 -13 -6 -25 0 -10 6 -21 6 -24 2 -4 -7 -38 -8 -56 -2
-15 6 -58 4 -78 -2 -15 -5 -21 -4 -17 2 4 6 -2 7 -18 1 -13 -5 -30 -5 -37 -1
-8 5 -19 5 -26 -1 -8 -7 -14 -6 -19 1 -5 7 -11 8 -19 1 -6 -5 -17 -6 -25 -2
-7 4 -30 5 -51 1 -22 -4 -42 -5 -45 -2 -9 9 -55 8 -55 -1 0 -4 -4 -5 -10 -2
-15 9 -80 12 -80 3 0 -4 -11 -3 -25 2 -15 6 -26 6 -30 0 -4 -7 -13 -6 -25 0
-10 6 -21 6 -24 2 -4 -7 -38 -8 -56 -2 -15 6 -58 4 -78 -2 -15 -5 -21 -4 -17
2 4 6 -2 7 -18 1 -13 -5 -30 -5 -37 -1 -8 5 -19 5 -26 -1 -8 -7 -14 -6 -19 1
-5 7 -11 8 -19 1 -6 -5 -17 -6 -25 -2 -7 4 -30 5 -51 1 -22 -4 -42 -5 -45 -2
-8 9 -55 9 -55 0 0 -4 -12 -3 -27 3 -16 6 -28 11 -28 11 0 1 -10 -4 -22 -10
-13 -7 -24 -8 -28 -3 -3 6 -17 6 -33 1 -16 -4 -36 -4 -44 1 -10 6 -20 4 -27
-5z"/>
</g>
</svg>
